<svg id="e3qJiGzxESB1" xmlns="http://www.w3.org/2000/svg" xmlns:xlink="http://www.w3.org/1999/xlink" viewBox="0 0 300 300" shape-rendering="geometricPrecision" text-rendering="geometricPrecision"><path d="M115.475248,-0.000003L100.40579,69.959569L65.457151,99.988114v200.011883h169.996269v-200.011883L200.598265,69.959569L185.455298,-0.000003h-69.98005Z" transform="translate(-.4407 0.000003)" fill="#828284" stroke="#151515" stroke-width="2.5"/><path d="M81.174931,84.471777L150,298.989591" transform="translate(.014586 1.010409)" fill="#ffed00" stroke="#fffc00" stroke-width="5"/><path d="M81.174931,84.471777L150,298.989591" transform="matrix(.293615 0 0 0.464848 105.972336-39.266536)" fill="#ffed00" stroke="#fffc00" stroke-width="5"/><path d="M81.174931,84.471777L150,298.989591" transform="matrix(.293615 0 0 0.464848 151.167071-39.266536)" fill="#ffed00" stroke="#fffc00" stroke-width="5"/><path d="M65.016451,99.988117l59.997922,200.011881h49.986873L99.965089,69.95957L65.016451,99.988117Z" transform="translate(.000002 0.000002)" fill="none" stroke="#b4b6bc" stroke-width="3" stroke-linecap="round" stroke-linejoin="round"/><path d="" fill="none" stroke="#3f5787" stroke-width="0.6"/><line x1="-20.15944" y1="0" x2="20.15944" y2="0" transform="translate(149.965953 99.718177)" fill="none" stroke="#151515" stroke-width="3"/><line x1="-16.422573" y1="0" x2="16.422573" y2="0" transform="translate(195.209321 99.718177)" fill="none" stroke="#151515" stroke-width="3"/><rect width="50" height="125" rx="0" ry="0" transform="translate(195.209321 150)" fill="#a5a5a5" stroke="#151515" stroke-width="3"/></svg>
