<svg id="eDC2yceFPA91" xmlns="http://www.w3.org/2000/svg" xmlns:xlink="http://www.w3.org/1999/xlink" viewBox="0 0 300 300" shape-rendering="geometricPrecision" text-rendering="geometricPrecision"><path d="M150,19.653676q-14.178599,18.634719-19.435632,25.388807-30.082596,38.649274-30.355255,58.368231v166.788051h99.702333v-166.788051c0,0-.222328-20.191072-29.875181-58.368232C165.207199,38.825204,150,19.653676,150,19.653676Z" transform="matrix(1 0 0 1.197389-.060279-23.68713)" fill="#828284" stroke="#151515" stroke-width="2.5" stroke-linecap="round" stroke-linejoin="round"/><rect width="12.93444" height="23.199869" rx="0" ry="0" transform="matrix(.594231 0 0 2.59291 146.156977 40.064351)" fill="#2c2c2c" stroke="#151515" stroke-linecap="round" stroke-linejoin="round"/><path d="M123.070128,78.610521c12.212409-10.124842,12.579337-10.124842,24.260405,0c12.843935,11.132782,12.679434,51.975634,12.679434,51.975634h-49.454862c0,0-1.191463-40.612109,12.515023-51.975634Z" transform="translate(14.725963-.583172)" fill="#a5a5a5" stroke="#151515" stroke-width="1.5"/><rect width="49.471858" height="81.187666" rx="13" ry="13" transform="matrix(1 0 0 1.384535 125.264072 172.273067)" fill="#a5a5a5" stroke="#151515" stroke-width="1.5"/></svg>
