<svg id="eMFpUZs5IRi1" xmlns="http://www.w3.org/2000/svg" xmlns:xlink="http://www.w3.org/1999/xlink" viewBox="0 0 300 300" shape-rendering="geometricPrecision" text-rendering="geometricPrecision"><path d="M99.588498,99.990996c-.763574.580179-.002884,101.810428,0,200.009003h100.209304l.003632-200.009003c-.003632-10.009463-12.645476-39.912339-20.013871-60.103482C169.983773,9.998618,160.012238,20.025966,150,0c-10.027762,19.965966-19.939177,10.025234-29.426368,39.887514-10.502236,28.768395-20.985134,50.157945-20.985134,60.103482Z" transform="translate(.444009 0)" fill="#828284" stroke="#151515" stroke-width="3"/><rect width="49.711619" height="88.983797" rx="13" ry="13" transform="translate(125.14419 155.265945)" fill="#a5a5a5" stroke="#151515" stroke-width="3"/><polygon points="-6.031695,-30 0.921188,-15.186918 16.468305,-12.81153 5.218305,-1.281153 7.87407,15 -6.031695,7.313082 -19.93746,15 -17.281695,-1.281153 -28.531695,-12.81153 -12.984578,-15.186918 -6.031695,-30" transform="translate(156.031695 207.257843)" fill="#ecff00" stroke-width="0"/></svg>
