<svg id="exvAOTzY34t1" xmlns="http://www.w3.org/2000/svg" xmlns:xlink="http://www.w3.org/1999/xlink" viewBox="0 0 300 300" shape-rendering="geometricPrecision" text-rendering="geometricPrecision"><path d="M150,19.653676q-7.303563,2.06081-19.435632,25.388807-30.355259,58.368232-30.355255,58.368231v166.788051h99.702333v-166.788051c0,0,.000003,0-29.875181-58.368232C157.978554,21.484894,150,19.653676,150,19.653676Z" transform="matrix(.788598 0 0 1.197389 31.662764-23.68713)" fill="#828284" stroke="#151515" stroke-width="2.5" stroke-linecap="round" stroke-linejoin="round"/><rect width="8.548986" height="38.944365" rx="0" ry="0" transform="translate(145.725508 30.427619)" fill="#202020" stroke="#151515"/><rect width="27.518728" height="43.236516" rx="0" ry="0" transform="translate(118.20678 128.227673)" fill="#a5a5a5" stroke="#151515" stroke-linecap="round" stroke-linejoin="round"/><rect width="27.518728" height="43.236516" rx="0" ry="0" transform="translate(154.274494 128.381742)" fill="#a5a5a5" stroke="#151515" stroke-linecap="round" stroke-linejoin="round"/><rect width="36.067714" height="79.305191" rx="0" ry="0" transform="matrix(1.45838 0 0 1.254163 123.699785 190.93635)" fill="#a5a5a5" stroke="#151515" stroke-linecap="round" stroke-linejoin="round"/><path d="M131.966144,74.815034l6.88832,43.634988h22.291074l6.88832-43.634988-18.081394-26.967906-17.98632,26.967906" fill="#a5a5a5" stroke="#151515" stroke-linecap="round" stroke-linejoin="round"/></svg>
